<?xml version="1.0" encoding="utf-8"?>
<!-- Generator: Adobe Illustrator 24.3.0, SVG Export Plug-In . SVG Version: 6.00 Build 0)  -->
<svg version="1.1" id="Слой_1" xmlns:v="https://vecta.io/nano"
	 xmlns="http://www.w3.org/2000/svg" xmlns:xlink="http://www.w3.org/1999/xlink" x="0px" y="0px" viewBox="0 0 24 24"
	 style="enable-background:new 0 0 24 24;" xml:space="preserve">
<style type="text/css">
	.st0{fill:#01040A;}
	.st1{fill:#CE1214;}
</style>
<path class="st0" d="M7,11.4L7,11.4H1.5c-0.7,0-1.2-0.6-1-1.3c0-0.1,0.1-0.2,0.2-0.3l6.8-7.1C8,2,8,2,8.8,2h6.8
	c0.3,0,0.6,0.1,0.8,0.3l2.3,2.4l4.7,4.9c0.3,0.3,0.3,0.7,0.2,1.1c-0.2,0.4-0.5,0.6-0.9,0.6h-1.1h-4.2h-0.2v-0.2V7.8
	c0-0.4-0.2-0.6-0.6-0.6H7.8c-0.5,0-0.6,0.3-0.6,0.6C7,9,7,10.2,7,11.4z M7,12.8V13v3.4C7,16.8,7.2,17,7.6,17h8.9
	c0.4,0,0.6-0.2,0.6-0.6V13v-0.2h0.2h5.3c0.7,0,1.1,0.5,1.1,1.2c0,0.2-0.1,0.4-0.3,0.5l-4.6,4.8l-2.3,2.4c-0.3,0.3-0.7,0.5-1.1,0.4
	H8.5c-0.3,0.1-0.5,0-0.6-0.1c-0.3-0.3-0.7-0.6-1-0.9l-6.2-6.5c-0.3-0.3-0.3-0.7-0.2-1.1c0.2-0.4,0.5-0.6,0.9-0.7h0.2h5.2
	C6.8,12.8,7,12.8,7,12.8z"/>
<path class="st1" d="M9.1,12.1V10c0-0.5,0.3-0.8,0.8-0.8h4.4c0.5,0,0.8,0.3,0.8,0.8v4.1c0,0.6-0.3,0.9-0.9,0.9H10
	c-0.6,0-1-0.4-0.9-0.9V12.1z"/>
</svg>
