<svg xmlns="http://www.w3.org/2000/svg" viewBox="0 0 48 48" xmlns:v="https://vecta.io/nano"><g fill="#303030"><path d="M21 5v16H5V5h16m2-2H3v20h20V3h0zm20 2v16H27V5h16m2-2H25v20h20V3h0zM21 27v16H5V27h16m2-2H3v20h20V25h0zm3 1h18v18H26z"/><path d="M43 27v16H27V27h16m2-2H25v20h20V25h0z"/></g><path d="M41.1 35L29 28v14z" fill="#fff"/><path d="M14.3 9v8.1h-1.9v-6.3l-1.7 1.1-.8-1.3L12.6 9h1.7zm-.2 22.1c.4.2.7.4.9.7a1.93 1.93 0 0 1 .3 1c0 .5-.1.9-.4 1.2s-.7.6-1.2.7c.5.1 1 .3 1.3.6s.5.8.5 1.4c0 .5-.1.9-.4 1.3-.2.4-.6.7-1.1.9s-1 .3-1.7.3c-1.2 0-2.1-.4-2.8-1.2l1-1c.3.3.5.5.8.6s.5.2.9.2.7-.1.9-.3.3-.5.3-.9-.1-.7-.3-.9-.6-.3-1-.3h-.7l.2-1.3h.5c.4 0 .6-.1.9-.3s.3-.4.3-.8c0-.3-.1-.5-.3-.7s-.5-.2-.8-.2c-.6 0-1.1.2-1.6.7l-.9-1c.8-.7 1.7-1.1 2.7-1.1.8.1 1.3.2 1.7.4zm22-22c.4.2.7.5 1 .8.2.4.3.7.3 1.2 0 .4-.1.8-.3 1.2s-.5.8-.9 1.4c-.4.5-1.1 1.1-2 1.9h3.3l-.2 1.5H32v-1.3l2.1-2.2c.4-.5.8-.9.9-1.2a1.93 1.93 0 0 0 .3-1c0-.3-.1-.6-.3-.8s-.4-.3-.8-.3c-.3 0-.5.1-.8.2-.2.1-.5.3-.7.6l-1.1-.9c.3-.4.7-.8 1.2-1s1-.4 1.6-.4 1.3.1 1.7.3z"/></svg>