<svg xmlns="http://www.w3.org/2000/svg" viewBox="0 0 24 24" xmlns:v="https://vecta.io/nano"><path d="M2.3 7.8h19.9v8.3H2.3z" fill="#fff"/><path d="M.3 12v-1.7c0-.9.2-1.7.7-2.4.5-.8 1.2-1.3 2.1-1.6.4-.1.9-.2 1.3-.2h1.5c.1 0 .1 0 .1-.1.7-.7 1.5-1.2 2.3-1.6s1.6-.6 2.4-.7c.6-.1 1.2-.1 1.8-.1.8.1 1.6.2 2.4.5s1.5.7 2.1 1.2c.3.2.5.4.8.7l.1.1h1.4c.9 0 1.7.2 2.4.7.6.4 1.1.9 1.4 1.6.3.6.4 1.3.4 1.9v3.2c0 .9-.2 1.7-.7 2.4-.5.8-1.2 1.3-2.1 1.6-.4.1-.9.2-1.3.2h-1.5c-.1 0-.1 0-.1.1-.7.7-1.5 1.2-2.3 1.6s-1.6.6-2.4.7c-.6.1-1.2.1-1.8.1-.8-.1-1.6-.2-2.4-.5s-1.5-.7-2.1-1.2c-.3-.2-.5-.4-.8-.7l-.1-.1H4.5c-.9 0-1.7-.2-2.4-.7-.6-.4-1.1-.9-1.4-1.6-.3-.6-.4-1.3-.4-1.9V12zm10.3 4.2h.1 8.8c.4 0 .8-.1 1.2-.3.9-.5 1.4-1.2 1.4-2.2v-3.5c0-.3-.1-.6-.2-.9-.5-1-1.2-1.5-2.3-1.5h-4.1c-.2 0-.4 0-.6.1-.6.1-1 .4-1.4.9s-.5 1-.5 1.6v3.2c0 .4 0 .7-.2 1-.2.6-.6 1-1.2 1.3l-1 .3zM5.1 9.4l-.5 2.9-.4-2.9H2.9l1.2 5.2h1.3l.5-3.1.5 3.1h1.3l1.1-5.2H7.5l-.4 2.9-.5-2.9H5.1zm5.3 5.2v-3.7H9.2v3.7h1.2zm-.6-4.1c.2 0 .4-.1.6-.2.2-.2.3-.5.1-.8-.3-.4-.8-.5-1.2-.1-.1.1-.2.3-.2.5 0 .3.4.6.7.6zm8.5 1.3V13h-2.5v1.6h-1.3V9.4h4.1v1.2h-2.7v1.2h2.4zm2.3 2.8h-1.2v-3.7h1.2v3.7zm-.5-4.1c-.3 0-.5-.1-.7-.3-.2-.3-.2-.6.1-.8.3-.3.8-.3 1.1 0s.2.8-.2 1c-.1.1-.3.1-.3.1z"/></svg>