<svg xmlns="http://www.w3.org/2000/svg" viewBox="0 0 24 24" xmlns:v="https://vecta.io/nano"><path d="M12 18.4c-2.8 0-4.3-2.1-4.3-6.3 0-4.3 1.4-6.5 4.3-6.5s4.3 2.2 4.3 6.5c0 4.2-1.5 6.3-4.3 6.3zm0-1.6c1.6 0 2.4-1.6 2.4-4.7 0-3.3-.8-4.9-2.4-4.9s-2.4 1.6-2.4 4.9c0 3.1.8 4.7 2.4 4.7zm0-3.4c-.4 0-.7-.1-1-.4s-.4-.6-.4-1 .1-.7.4-1 .6-.4 1-.4.7.1 1 .4.4.6.4 1-.1.7-.4 1-.6.4-1 .4z"/><path d="M6.7 11.3l-4-4c-.4-.4-1-.4-1.4 0s-.4 1 0 1.4L4.6 12l-3.3 3.3c-.4.4-.4 1 0 1.4.2.2.4.3.7.3s.5-.1.7-.3l4-4c.4-.4.4-1 0-1.4zm10.6 0l4-4c.4-.4 1-.4 1.4 0s.4 1 0 1.4L19.4 12l3.3 3.3c.4.4.4 1 0 1.4-.2.2-.4.3-.7.3s-.5-.1-.7-.3l-4-4c-.4-.4-.4-1 0-1.4z" fill="#01adff"/></svg>