<?xml version="1.0" encoding="utf-8"?>
<!-- Generator: Adobe Illustrator 24.3.0, SVG Export Plug-In . SVG Version: 6.00 Build 0)  -->
<svg version="1.1" id="Слой_1" xmlns="http://www.w3.org/2000/svg" xmlns:xlink="http://www.w3.org/1999/xlink" x="0px" y="0px"
	 viewBox="0 0 24 24" style="enable-background:new 0 0 24 24;" xml:space="preserve">
<style type="text/css">
	.st0{fill:#01ADFF;}
</style>
<g>
	<path d="M12,18.4c-2.8,0-4.3-2.1-4.3-6.3c0-4.3,1.4-6.5,4.3-6.5s4.3,2.2,4.3,6.5C16.3,16.3,14.8,18.4,12,18.4z M12,16.8
		c1.6,0,2.4-1.6,2.4-4.7c0-3.3-0.8-4.9-2.4-4.9s-2.4,1.6-2.4,4.9C9.6,15.2,10.4,16.8,12,16.8z M12,13.4c-0.4,0-0.7-0.1-1-0.4
		s-0.4-0.6-0.4-1c0-0.4,0.1-0.7,0.4-1s0.6-0.4,1-0.4c0.4,0,0.7,0.1,1,0.4s0.4,0.6,0.4,1c0,0.4-0.1,0.7-0.4,1S12.4,13.4,12,13.4z"/>
</g>
<path class="st0" d="M6.7,11.3l-4-4c-0.4-0.4-1-0.4-1.4,0s-0.4,1,0,1.4L4.6,12l-3.3,3.3c-0.4,0.4-0.4,1,0,1.4C1.5,16.9,1.7,17,2,17
	s0.5-0.1,0.7-0.3l4-4C7.1,12.3,7.1,11.7,6.7,11.3z"/>
<path class="st0" d="M17.3,11.3l4-4c0.4-0.4,1-0.4,1.4,0s0.4,1,0,1.4L19.4,12l3.3,3.3c0.4,0.4,0.4,1,0,1.4C22.5,16.9,22.3,17,22,17
	s-0.5-0.1-0.7-0.3l-4-4C16.9,12.3,16.9,11.7,17.3,11.3z"/>
</svg>
